    <svg
      class="bitcoin"
      viewBox="0 0 24 24"
      fill="none"
      xmlns="http://www.w3.org/2000/svg"
      stroke=""
    >
      <g id="SVGRepo_bgCarrier" stroke-width="0"></g>
      <g
        id="SVGRepo_tracerCarrier"
        stroke-linecap="round"
        stroke-linejoin="round"
      ></g>
      <g id="SVGRepo_iconCarrier">
        <path
          d="M12 8V6M12 18V16M9 12H13C14.1046 12 15 11.1046 15 10C15 8.89543 14.1046 8 13 8H9V12ZM9 12H14C15.1046 12 16 12.8954 16 14C16 15.1046 15.1046 16 14 16H9V12ZM21 12C21 16.9706 16.9706 21 12 21C7.02944 21 3 16.9706 3 12C3 7.02944 7.02944 3 12 3C16.9706 3 21 7.02944 21 12Z"
          stroke-width="2"
          stroke-linecap="round"
          stroke-linejoin="round"
        ></path>
      </g>
    </svg>

